<svg xmlns="http://www.w3.org/2000/svg" xmlns:xlink="http://www.w3.org/1999/xlink" viewBox="0 0 95.48099999999998 64.82644024662501" height="64.82644024662501" width="95.48099999999998" data-background-color="#000000" preserveAspectRatio="xMidYMid meet" id="tight-bounds"><g><svg viewBox="0 0 95.48099999999998 64.82644024662501" height="64.82644024662501" width="95.48099999999998"><g><svg viewBox="0 0 95.48099999999998 64.82644024662501" height="64.82644024662501" width="95.48099999999998"><g id="textblocktransform"><svg viewBox="0 0 95.48099999999998 64.82644024662501" height="64.82644024662501" width="95.48099999999998" id="textblock"><g><svg viewBox="0 0 95.48099999999998 64.82644024662501" height="64.82644024662501" width="95.48099999999998"><g><svg viewBox="0 0 95.48099999999998 64.82644024662501" height="64.82644024662501" width="95.48099999999998"><g><svg xmlns="http://www.w3.org/2000/svg" xmlns:xlink="http://www.w3.org/1999/xlink" version="1.1" x="0" y="0" viewBox="6.7721266746521 20.650381088256836 86.45645904541016 58.69926452636719" enable-background="new 0 0 100 100" xml:space="preserve" height="64.82644024662501" width="95.48099999999998" class="icon-icon-0" data-fill-palette-color="accent" id="icon-0"/></g></svg></g></svg></g></svg></g></svg></g></svg><mask id="20147bf9-9c4e-4442-a7b5-edc81cdb9de5"><svg xmlns:xlink="http://www.w3.org/1999/xlink" viewBox="0 0 95.48099999999998 64.82644024662501" height="64.82644024662501" width="95.48099999999998" data-background-color="#000000" preserveAspectRatio="xMidYMid meet" id="SvgjsSvg1214"><g><svg viewBox="0 0 95.48099999999998 64.82644024662501" height="64.82644024662501" width="95.48099999999998"><g><svg viewBox="0 0 95.48099999999998 64.82644024662501" height="64.82644024662501" width="95.48099999999998"><g id="SvgjsG1213"><svg viewBox="0 0 95.48099999999998 64.82644024662501" height="64.82644024662501" width="95.48099999999998" id="SvgjsSvg1212"><g><svg viewBox="0 0 95.48099999999998 64.82644024662501" height="64.82644024662501" width="95.48099999999998"><g><svg viewBox="0 0 95.48099999999998 64.82644024662501" height="64.82644024662501" width="95.48099999999998"><g><svg xmlns="http://www.w3.org/2000/svg" xmlns:xlink="http://www.w3.org/1999/xlink" version="1.1" x="0" y="0" viewBox="6.7721266746521 20.650381088256836 86.45645904541016 58.69926452636719" enable-background="new 0 0 100 100" xml:space="preserve" height="64.82644024662501" width="95.48099999999998" class="icon-icon-0" data-fill-palette-color="accent" id="SvgjsSvg1211"><path fill="white" d="M89.346 48.745c-2.688-2.958-7.158-4.861-11.124-4.737-3.738 0.115-6.597 2.19-8.047 5.844-0.417 1.052-0.661 2.317-0.919 3.658-0.526 2.732-1.07 5.558-3.102 6.527-0.709 0.337-1.443 0.3-2.183-0.11-1.57-0.873-2.703-3.114-2.89-4.776-0.242-2.14 0.648-3.97 1.592-5.909 0.432-0.889 0.88-1.808 1.209-2.759 1.238-3.587 0.896-6.903-0.062-11.091-2.101-9.194-11.786-14.048-19.896-14.669-6.895-0.527-15.38 1.727-18.515 9.636-2.576 6.498-1.47 12.684-0.298 19.233l0.402 2.282c0.428 2.509 0.053 4.318-1.083 5.232-1.244 1-3.445 0.97-6.037-0.083-0.695-0.282-1.366-0.806-2.076-1.362-1.038-0.812-2.11-1.65-3.408-1.825-2.264-0.305-5.118 1.405-5.946 5.174C6.062 63.1 8.49 68.426 11.322 70.834c3.432 2.922 8.338 5.04 10.799 5.752 6.513 1.882 11.556 1.806 14.987-0.227 5.423-3.213 5.823-12.317 4.027-17.655l-0.529-1.526c-1.532-4.358-3.117-8.866 0.385-12.388 0.868-0.872 1.813-1.229 2.812-1.059 1.56 0.267 3.242 1.852 4.287 4.041 1.751 3.526 1.588 7.59 1.416 11.892-0.213 5.322-0.433 10.825 3.284 15.211 5.324 6.285 14.953 4.586 20.217 3.014 6.905-2.064 13.873-4.789 18.07-10.702C94.849 61.87 93.274 53.065 89.346 48.745zM84.36 56.993c0.04 1.077-0.802 1.982-1.882 2.019-1.078 0.038-1.982-0.805-2.022-1.883-0.036-1.079 0.804-1.984 1.885-2.021C83.419 55.069 84.323 55.912 84.36 56.993zM88.384 53.567c1.077-0.036 1.983 0.804 2.022 1.884 0.038 1.08-0.807 1.984-1.884 2.022-1.08 0.039-1.984-0.806-2.024-1.884C86.462 54.513 87.307 53.606 88.384 53.567z"/></svg></g></svg></g></svg></g></svg></g></svg></g></svg></g><defs><mask/></defs></svg></mask><linearGradient x1="0.054" x2="0.941" y1="0.5" y2="0.5" id="87e7e624-8ab3-4c11-ab0d-a4300437796f"><stop stop-color="#864d25" offset="0"/><stop stop-color="#f1c4b3" offset="0.498"/><stop stop-color="#864d25" offset="1"/></linearGradient><rect width="95.48099999999998" height="64.82644024662501" fill="url(#87e7e624-8ab3-4c11-ab0d-a4300437796f)" mask="url(#20147bf9-9c4e-4442-a7b5-edc81cdb9de5)" data-fill-palette-color="accent"/></g><defs><mask/></defs></svg>